PathFileType	4	(X/Y/Z)	F:\MotionCapture\20160217\3\Generated_files\EMG_Fprce_test03-Dynamic.trc
DataRate	CameraRate	NumFrames	NumMarkers	Units	OrigDataRate	OrigDataStartFrame	OrigNumFrames
120.00	120.00	       28	39	mm	120.00	671	       766
Frame#	Time	Top.Head			Front.Head			Rear.Head			R.Shoulder			R.Offset			R.Elbow			R.Wrist			L.Shoulder			L.Elbow			L.Wrist			R.ASIS			L.ASIS			V.Sacral			R.Thigh			R.Knee			R.Shank			R.Ankle			R.Heel			R.Toe			L.Thigh			L.Knee			L.Shank			L.Ankle			L.Heel			L.Toe			R1			R2			R3			R4			R5			R6			R7			L1			L2			L3			L4			L5			L6			L7			V_Mid_ASIS			V_Pelvis_Origin			V_R.Hip_JC			V_L.Hip_JC			V_R.Knee_JC			V_L.Knee_JC			V_R.Ankle_JC			V_L.Ankle_JC			V_Mid_Hip			V_Mid_Shoulder			V_R.Hand			V_L.Hand			V_R.Toe_Offset_Static			V_L.Toe_Offset_Static			V_R.Toe_Offset			V_L.Toe_Offset			
		X1	Y1	Z1	X2	Y2	Z2	X3	Y3	Z3	X4	Y4	Z4	X5	Y5	Z5	X6	Y6	Z6	X7	Y7	Z7	X8	Y8	Z8	X9	Y9	Z9	X10	Y10	Z10	X11	Y11	Z11	X12	Y12	Z12	X13	Y13	Z13	X14	Y14	Z14	X15	Y15	Z15	X16	Y16	Z16	X17	Y17	Z17	X18	Y18	Z18	X19	Y19	Z19	X20	Y20	Z20	X21	Y21	Z21	X22	Y22	Z22	X23	Y23	Z23	X24	Y24	Z24	X25	Y25	Z25	X26	Y26	Z26	X27	Y27	Z27	X28	Y28	Z28	X29	Y29	Z29	X30	Y30	Z30	X31	Y31	Z31	X32	Y32	Z32	X33	Y33	Z33	X34	Y34	Z34	X35	Y35	Z35	X36	Y36	Z36	X37	Y37	Z37	X38	Y38	Z38	X39	Y39	Z39	

671	5.583																																																																																																																																																																						-3933.43994	240.94789	45.65954	-3999.74146	-79.02576	63.71767	-3847.21460	90.82602	106.50997	-4514.38428	82.99603	-66.56355	-3912.83667	29.03393	82.46617	-4005.18799	269.23376	35.50404	-3903.43994	193.63574	46.10910	
672	5.592																																																																																																																																																																						-4117.63135	202.39735	35.22647	-3933.23535	240.58878	45.80338	-4174.40088	-26.64120	16.74674	-4106.08887	240.44868	40.54321	-4005.25317	268.61600	35.19999	-4015.93384	-87.68568	62.04069	-3927.72534	25.07601	77.77862	-3903.48730	193.63261	46.35948	
673	5.600																																																																																																																																																																						-4121.56445	200.22003	38.13584	-3935.73535	240.02409	45.40223	-3885.07397	-45.18498	1425.99536	-3742.38135	51.29374	124.36990	-4070.26221	-91.23564	66.26763	-4000.98779	-102.40069	67.76057	-3947.24072	72.56803	81.10121	-4005.09814	268.52438	35.28458	-3903.76538	192.44820	46.47751	
674	5.608																																																																																																																																																																						-4116.69336	201.63327	35.70935	-3935.42041	239.29083	46.02979	-4082.75708	-99.08227	66.69872	-4284.22412	-49.43936	-0.06339	-3996.89355	-57.50438	56.72817	-3959.53882	66.22723	73.20560	-3919.79370	310.67886	91.92802	-3903.88647	191.76891	46.56086	-4004.90479	268.55450	35.40133	
675	5.617																																																																																																																																																																						-3935.74072	238.85114	46.27014	-4091.76318	-106.73856	69.11658	-3820.55298	80.00845	110.59164	-3836.50635	175.45305	935.03772	-3968.69312	259.27863	74.50447	-4004.97070	268.10068	35.41708	-3919.86572	310.47906	91.98464	-3902.13452	194.19203	47.29483	
676	5.625																																																																																																																																																																						-4005.73804	266.45471	35.69002	-3936.24097	238.79744	46.96606	-4095.84302	-114.51937	72.30832	-3886.74487	-50.22516	1425.82642	-4117.04785	200.97813	35.79049	-4144.11035	-151.87541	36.22781	-3920.17480	310.26083	92.14558	-3903.84668	191.18295	47.17414	
677	5.633																																																																																																																																																																						-3936.26807	238.74440	47.10148	-4116.85059	200.67851	35.76451	-4005.60425	266.37366	35.83056	-4144.23486	-116.03622	67.86060	-3969.48828	257.16669	73.21063	-3920.22168	310.06671	92.37958	-3903.92114	191.12029	47.44535	
678	5.642																																																																																																																																																																						-4005.73096	266.50174	36.07764	-3936.53662	238.60262	47.23669	-4151.08984	-122.58101	68.21026	-4104.00342	240.22403	42.48828	-4116.91113	200.48305	35.86779	-3850.36792	172.43283	934.51685	-3903.92065	191.17883	47.83354	
679	5.650																																																																																																																																																																						-3936.75391	238.37350	47.44814	-4005.57861	266.28931	36.14323	-3969.80884	256.96533	74.23291	-4110.71094	197.27057	38.50384	-3441.60718	-272.39017	232.63254	-3854.74561	171.84921	934.58307	-4158.28760	-124.70299	75.15832	-3903.75098	191.22734	48.59468	
680	5.658																																																																																																																																																																						-4005.44800	266.35004	36.34895	-3936.92456	238.13712	47.67472	-3891.72998	107.40149	94.98463	-4130.29102	-146.10008	74.78988	-4158.00537	-91.01292	44.55205	-3977.78223	254.37746	72.81077	-3903.49463	191.96031	49.33871	
681	5.667																																																																																																																																																																						-3937.05054	238.09825	47.93420	-4173.21338	-145.45389	72.41894	-4005.59839	266.50372	36.55511	-3979.80273	253.78310	72.41238	-4110.83350	196.83069	38.14400	-4081.01855	259.68228	464.98758	-3903.63232	191.85522	49.68040	
682	5.675																																																																																																																																																																						-4005.49902	266.55426	36.77927	-4110.83496	196.61630	37.90522	-4104.13330	-145.58586	59.86653	-4084.57666	257.03488	464.69089	-4182.98291	-152.03940	69.72365	-3980.03784	253.86778	72.67461	-4184.74170	-176.77191	62.37542	-4186.98633	-139.63495	21.37127	-4081.13721	32.99087	49.13527	-3903.64722	191.90210	50.28500	-3933.49170	239.45294	48.61057	
683	5.683																																																																																																																																																																						-4005.64380	266.40201	36.80277	-3896.03662	-60.76479	1422.12231	-3983.42773	253.06352	72.02015	-3837.88354	84.88691	108.93134	-4182.78369	-160.84218	73.18429	-3903.82227	191.85522	50.77154	-3933.06494	240.00412	49.58060	-3873.22290	167.84286	933.85461	-4087.91089	254.80550	464.17172	-4185.77637	-102.04987	45.81116	
684	5.692																																																																																																																																																																						-4005.84521	266.77328	36.94080	-4110.84521	196.84978	38.22349	-3877.55981	168.96786	933.30304	-4191.69336	-187.73953	65.32084	-3933.35254	239.89383	50.24652	-3983.15918	253.14812	72.27692	-3904.63599	191.33519	50.86638	
685	5.700																																																																																																																																																																						-4005.99805	266.92175	37.05383	-3933.39648	240.51027	50.92833	-4110.74121	196.98022	38.17186	-3984.55493	252.95961	72.17376	-4191.38770	-179.48328	74.91265	-4120.07324	24.47403	46.71858	-3904.75269	191.07112	51.42905	
686	5.708																																																																																																																																																																						-4011.97900	266.33774	36.33226	-3983.56421	253.81673	72.91381	-3904.50806	191.68796	52.61744	
687	5.717																																																																																																																																																																						-4110.59131	197.16493	38.23901	-4013.01099	266.61777	37.11941	-3935.08789	239.10680	52.81470	-3972.55420	256.09882	76.47987	-4114.76709	-21.29776	43.81130	-3904.72778	191.81532	53.55777	
688	5.725																																																																																																																																																																						-4009.36084	268.60464	37.36617	-4110.60693	197.14032	38.19765	-3972.96606	256.52295	76.95782	-3899.58154	-64.57679	1418.97742	-4123.05518	-22.19246	43.56617	-3934.34473	241.57632	54.36726	-3904.75146	192.11887	54.68865	
689	5.733																																																																																																																																																																						-4110.45020	197.51381	38.07596	-3926.72534	245.22679	58.85311	-4161.68408	13.55618	46.32763	-3904.66748	193.13512	55.78628	
690	5.742																																																																																																																																																																						-3833.78906	222.43176	81.00985	-3935.17407	241.94318	55.67318	-4110.27539	197.85059	38.26894	-3904.30273	200.12233	58.05154	-3973.82471	259.40540	81.17945	-4168.80225	152.01149	-7.14659	
691	5.750																																																																																																																																																																						-3906.80640	-75.84409	1416.36792	-3832.87256	223.83911	82.60088	-4110.29443	198.27820	38.87373	-4131.57275	-105.83129	41.79614	-3975.09180	259.94562	82.05537	-3935.82422	244.80968	58.10303	
692	5.758																																																																																																																																																																						-4682.28271	436.21136	-115.63293	-3975.30566	261.51480	83.59729	-3905.68872	195.90585	60.15274	
693	5.767																																																																																																																																																																						-3935.31177	248.58871	61.35506	-4157.20117	219.88280	26.29193	-4147.49414	-101.41859	37.00050	-3901.70581	-76.79095	1413.37268	-4251.52734	-214.73775	16.09607	-4007.24414	272.94717	39.78647	
694	5.775																																																																																																																																																																						-3936.45679	248.56401	62.29488	-4156.78906	219.87291	26.48664	-3958.27881	177.38628	51.98431	-4180.69287	-203.54437	63.22902	-3902.38818	-80.58821	1411.89807	-4007.69531	274.06976	40.92368	
695	5.783																																																																																																																																																																						-4156.68945	220.02242	26.61365	-4070.70776	285.07059	30.04882	-4040.35034	-179.92577	94.99400	-3969.50195	173.02048	55.54314	-4254.95117	-214.12868	12.09393	-3978.61890	262.86414	87.60831	
696	5.792																																																																																																																																																																						-4204.72607	-206.94225	53.92334	-4156.81934	220.16982	27.13737	-3979.15845	264.47311	89.68252	-3938.41260	250.38814	67.54185	
697	5.800																																																																																																																																																																						-4146.34570	-57.76080	59.82214	-3939.18481	251.24471	69.26685	-4203.03418	5.35474	43.82158	-4106.73486	240.19995	40.22179	-4009.75195	275.94171	43.08353	
698	5.808																																																																																																																																																																						-3939.58960	253.63512	71.01725	-3902.56738	-92.67003	1407.44971	-4064.49927	-127.16264	452.46643	-4147.08154	-57.10081	58.72300	-3981.98315	265.62817	93.46284	-4106.82471	240.01413	40.11397	-4011.03027	276.81445	44.29740	
